<?xml version="1.0" standalone="no"?>
<svg xmlns:xlink="http://www.w3.org/1999/xlink" id="wave" style="transform:rotate(180deg); transition: 0.3s" viewBox="0 0 1440 100" version="1.1" xmlns="http://www.w3.org/2000/svg"><defs><linearGradient id="sw-gradient-0" x1="0" x2="0" y1="1" y2="0"><stop stop-color="rgba(117, 149, 96, 1)" offset="0%"/><stop stop-color="rgba(117, 149, 96, 1)" offset="100%"/></linearGradient></defs><path style="transform:translate(0, 0px); opacity:1" fill="url(#sw-gradient-0)" d="M0,60L60,55C120,50,240,40,360,38.3C480,37,600,43,720,46.7C840,50,960,50,1080,53.3C1200,57,1320,63,1440,58.3C1560,53,1680,37,1800,25C1920,13,2040,7,2160,8.3C2280,10,2400,20,2520,23.3C2640,27,2760,23,2880,25C3000,27,3120,33,3240,33.3C3360,33,3480,27,3600,31.7C3720,37,3840,53,3960,58.3C4080,63,4200,57,4320,48.3C4440,40,4560,30,4680,31.7C4800,33,4920,47,5040,48.3C5160,50,5280,40,5400,31.7C5520,23,5640,17,5760,26.7C5880,37,6000,63,6120,66.7C6240,70,6360,50,6480,41.7C6600,33,6720,37,6840,31.7C6960,27,7080,13,7200,11.7C7320,10,7440,20,7560,35C7680,50,7800,70,7920,65C8040,60,8160,30,8280,25C8400,20,8520,40,8580,50L8640,60L8640,100L8580,100C8520,100,8400,100,8280,100C8160,100,8040,100,7920,100C7800,100,7680,100,7560,100C7440,100,7320,100,7200,100C7080,100,6960,100,6840,100C6720,100,6600,100,6480,100C6360,100,6240,100,6120,100C6000,100,5880,100,5760,100C5640,100,5520,100,5400,100C5280,100,5160,100,5040,100C4920,100,4800,100,4680,100C4560,100,4440,100,4320,100C4200,100,4080,100,3960,100C3840,100,3720,100,3600,100C3480,100,3360,100,3240,100C3120,100,3000,100,2880,100C2760,100,2640,100,2520,100C2400,100,2280,100,2160,100C2040,100,1920,100,1800,100C1680,100,1560,100,1440,100C1320,100,1200,100,1080,100C960,100,840,100,720,100C600,100,480,100,360,100C240,100,120,100,60,100L0,100Z"/></svg>