<?xml version="1.0" standalone="no"?>
<svg xmlns:xlink="http://www.w3.org/1999/xlink" id="wave" style="transform:rotate(0deg); transition: 0.3s" viewBox="0 0 1440 190" version="1.1" xmlns="http://www.w3.org/2000/svg"><defs><linearGradient id="sw-gradient-0" x1="0" x2="0" y1="1" y2="0"><stop stop-color="rgba(35, 63, 51, 1)" offset="0%"/><stop stop-color="rgba(35, 63, 51, 1)" offset="100%"/></linearGradient></defs><path style="transform:translate(0, 0px); opacity:1" fill="url(#sw-gradient-0)" d="M0,57L24,63.3C48,70,96,82,144,88.7C192,95,240,95,288,91.8C336,89,384,82,432,76C480,70,528,63,576,79.2C624,95,672,133,720,133C768,133,816,95,864,88.7C912,82,960,108,1008,123.5C1056,139,1104,146,1152,139.3C1200,133,1248,114,1296,117.2C1344,120,1392,146,1440,133C1488,120,1536,70,1584,57C1632,44,1680,70,1728,91.8C1776,114,1824,133,1872,117.2C1920,101,1968,51,2016,50.7C2064,51,2112,101,2160,117.2C2208,133,2256,114,2304,114C2352,114,2400,133,2448,133C2496,133,2544,114,2592,95C2640,76,2688,57,2736,57C2784,57,2832,76,2880,69.7C2928,63,2976,32,3024,19C3072,6,3120,13,3168,25.3C3216,38,3264,57,3312,69.7C3360,82,3408,89,3432,91.8L3456,95L3456,190L3432,190C3408,190,3360,190,3312,190C3264,190,3216,190,3168,190C3120,190,3072,190,3024,190C2976,190,2928,190,2880,190C2832,190,2784,190,2736,190C2688,190,2640,190,2592,190C2544,190,2496,190,2448,190C2400,190,2352,190,2304,190C2256,190,2208,190,2160,190C2112,190,2064,190,2016,190C1968,190,1920,190,1872,190C1824,190,1776,190,1728,190C1680,190,1632,190,1584,190C1536,190,1488,190,1440,190C1392,190,1344,190,1296,190C1248,190,1200,190,1152,190C1104,190,1056,190,1008,190C960,190,912,190,864,190C816,190,768,190,720,190C672,190,624,190,576,190C528,190,480,190,432,190C384,190,336,190,288,190C240,190,192,190,144,190C96,190,48,190,24,190L0,190Z"/></svg>