<?xml version="1.0" standalone="no"?>
<svg xmlns:xlink="http://www.w3.org/1999/xlink" id="wave" style="transform:rotate(180deg); transition: 0.3s" viewBox="0 0 1440 340" version="1.1" xmlns="http://www.w3.org/2000/svg"><defs><linearGradient id="sw-gradient-0" x1="0" x2="0" y1="1" y2="0"><stop stop-color="rgba(35, 63, 51, 1)" offset="0%"/><stop stop-color="rgba(35, 63, 51, 1)" offset="100%"/></linearGradient></defs><path style="transform:translate(0, 0px); opacity:1" fill="url(#sw-gradient-0)" d="M0,102L30,113.3C60,125,120,147,180,158.7C240,170,300,170,360,164.3C420,159,480,147,540,136C600,125,660,113,720,141.7C780,170,840,238,900,238C960,238,1020,170,1080,158.7C1140,147,1200,193,1260,221C1320,249,1380,261,1440,249.3C1500,238,1560,204,1620,209.7C1680,215,1740,261,1800,238C1860,215,1920,125,1980,102C2040,79,2100,125,2160,164.3C2220,204,2280,238,2340,209.7C2400,181,2460,91,2520,90.7C2580,91,2640,181,2700,209.7C2760,238,2820,204,2880,204C2940,204,3000,238,3060,238C3120,238,3180,204,3240,170C3300,136,3360,102,3420,102C3480,102,3540,136,3600,124.7C3660,113,3720,57,3780,34C3840,11,3900,23,3960,45.3C4020,68,4080,102,4140,124.7C4200,147,4260,159,4290,164.3L4320,170L4320,340L4290,340C4260,340,4200,340,4140,340C4080,340,4020,340,3960,340C3900,340,3840,340,3780,340C3720,340,3660,340,3600,340C3540,340,3480,340,3420,340C3360,340,3300,340,3240,340C3180,340,3120,340,3060,340C3000,340,2940,340,2880,340C2820,340,2760,340,2700,340C2640,340,2580,340,2520,340C2460,340,2400,340,2340,340C2280,340,2220,340,2160,340C2100,340,2040,340,1980,340C1920,340,1860,340,1800,340C1740,340,1680,340,1620,340C1560,340,1500,340,1440,340C1380,340,1320,340,1260,340C1200,340,1140,340,1080,340C1020,340,960,340,900,340C840,340,780,340,720,340C660,340,600,340,540,340C480,340,420,340,360,340C300,340,240,340,180,340C120,340,60,340,30,340L0,340Z"/></svg>