<?xml version="1.0" standalone="no"?>
<svg xmlns:xlink="http://www.w3.org/1999/xlink" id="wave" style="transform:rotate(180deg); transition: 0.3s" viewBox="0 0 1440 190" version="1.1" xmlns="http://www.w3.org/2000/svg"><defs><linearGradient id="sw-gradient-0" x1="0" x2="0" y1="1" y2="0"><stop stop-color="rgba(215, 204, 174, 1)" offset="0%"/><stop stop-color="rgba(215, 204, 174, 1)" offset="100%"/></linearGradient></defs><path style="transform:translate(0, 0px); opacity:1" fill="url(#sw-gradient-0)" d="M0,57L40,53.8C80,51,160,44,240,60.2C320,76,400,114,480,114C560,114,640,76,720,76C800,76,880,114,960,110.8C1040,108,1120,63,1200,63.3C1280,63,1360,108,1440,129.8C1520,152,1600,152,1680,139.3C1760,127,1840,101,1920,88.7C2000,76,2080,76,2160,76C2240,76,2320,76,2400,79.2C2480,82,2560,89,2640,104.5C2720,120,2800,146,2880,129.8C2960,114,3040,57,3120,50.7C3200,44,3280,89,3360,114C3440,139,3520,146,3600,123.5C3680,101,3760,51,3840,41.2C3920,32,4000,63,4080,82.3C4160,101,4240,108,4320,110.8C4400,114,4480,114,4560,95C4640,76,4720,38,4800,38C4880,38,4960,76,5040,76C5120,76,5200,38,5280,44.3C5360,51,5440,101,5520,123.5C5600,146,5680,139,5720,136.2L5760,133L5760,190L5720,190C5680,190,5600,190,5520,190C5440,190,5360,190,5280,190C5200,190,5120,190,5040,190C4960,190,4880,190,4800,190C4720,190,4640,190,4560,190C4480,190,4400,190,4320,190C4240,190,4160,190,4080,190C4000,190,3920,190,3840,190C3760,190,3680,190,3600,190C3520,190,3440,190,3360,190C3280,190,3200,190,3120,190C3040,190,2960,190,2880,190C2800,190,2720,190,2640,190C2560,190,2480,190,2400,190C2320,190,2240,190,2160,190C2080,190,2000,190,1920,190C1840,190,1760,190,1680,190C1600,190,1520,190,1440,190C1360,190,1280,190,1200,190C1120,190,1040,190,960,190C880,190,800,190,720,190C640,190,560,190,480,190C400,190,320,190,240,190C160,190,80,190,40,190L0,190Z"/></svg>