<?xml version="1.0" standalone="no"?>
<svg xmlns:xlink="http://www.w3.org/1999/xlink" id="wave" style="transform:rotate(0deg); transition: 0.3s" viewBox="0 0 1440 190" version="1.1" xmlns="http://www.w3.org/2000/svg"><defs><linearGradient id="sw-gradient-0" x1="0" x2="0" y1="1" y2="0"><stop stop-color="rgba(34, 65, 46, 1)" offset="0%"/><stop stop-color="rgba(34, 65, 46, 1)" offset="100%"/></linearGradient></defs><path style="transform:translate(0, 0px); opacity:1" fill="url(#sw-gradient-0)" d="M0,95L40,104.5C80,114,160,133,240,120.3C320,108,400,63,480,66.5C560,70,640,120,720,117.2C800,114,880,57,960,53.8C1040,51,1120,101,1200,120.3C1280,139,1360,127,1440,126.7C1520,127,1600,139,1680,136.2C1760,133,1840,114,1920,114C2000,114,2080,133,2160,142.5C2240,152,2320,152,2400,133C2480,114,2560,76,2640,76C2720,76,2800,114,2880,107.7C2960,101,3040,51,3120,53.8C3200,57,3280,114,3360,139.3C3440,165,3520,158,3600,142.5C3680,127,3760,101,3840,98.2C3920,95,4000,114,4080,126.7C4160,139,4240,146,4320,126.7C4400,108,4480,63,4560,60.2C4640,57,4720,95,4800,110.8C4880,127,4960,120,5040,110.8C5120,101,5200,89,5280,72.8C5360,57,5440,38,5520,47.5C5600,57,5680,95,5720,114L5760,133L5760,190L5720,190C5680,190,5600,190,5520,190C5440,190,5360,190,5280,190C5200,190,5120,190,5040,190C4960,190,4880,190,4800,190C4720,190,4640,190,4560,190C4480,190,4400,190,4320,190C4240,190,4160,190,4080,190C4000,190,3920,190,3840,190C3760,190,3680,190,3600,190C3520,190,3440,190,3360,190C3280,190,3200,190,3120,190C3040,190,2960,190,2880,190C2800,190,2720,190,2640,190C2560,190,2480,190,2400,190C2320,190,2240,190,2160,190C2080,190,2000,190,1920,190C1840,190,1760,190,1680,190C1600,190,1520,190,1440,190C1360,190,1280,190,1200,190C1120,190,1040,190,960,190C880,190,800,190,720,190C640,190,560,190,480,190C400,190,320,190,240,190C160,190,80,190,40,190L0,190Z"/></svg>