<?xml version="1.0" standalone="no"?>
<svg xmlns:xlink="http://www.w3.org/1999/xlink" id="wave" style="transform:rotate(0deg); transition: 0.3s" viewBox="0 0 1440 190" version="1.1" xmlns="http://www.w3.org/2000/svg"><defs><linearGradient id="sw-gradient-0" x1="0" x2="0" y1="1" y2="0"><stop stop-color="rgba(215, 204, 174, 1)" offset="0%"/><stop stop-color="rgba(215, 204, 174, 1)" offset="100%"/></linearGradient></defs><path style="transform:translate(0, 0px); opacity:1" fill="url(#sw-gradient-0)" d="M0,76L40,91.8C80,108,160,139,240,139.3C320,139,400,108,480,95C560,82,640,89,720,104.5C800,120,880,146,960,136.2C1040,127,1120,82,1200,82.3C1280,82,1360,127,1440,123.5C1520,120,1600,70,1680,69.7C1760,70,1840,120,1920,142.5C2000,165,2080,158,2160,148.8C2240,139,2320,127,2400,126.7C2480,127,2560,139,2640,126.7C2720,114,2800,76,2880,69.7C2960,63,3040,89,3120,98.2C3200,108,3280,101,3360,95C3440,89,3520,82,3600,66.5C3680,51,3760,25,3840,19C3920,13,4000,25,4080,34.8C4160,44,4240,51,4320,53.8C4400,57,4480,57,4560,57C4640,57,4720,57,4800,69.7C4880,82,4960,108,5040,110.8C5120,114,5200,95,5280,88.7C5360,82,5440,89,5520,101.3C5600,114,5680,133,5720,142.5L5760,152L5760,190L5720,190C5680,190,5600,190,5520,190C5440,190,5360,190,5280,190C5200,190,5120,190,5040,190C4960,190,4880,190,4800,190C4720,190,4640,190,4560,190C4480,190,4400,190,4320,190C4240,190,4160,190,4080,190C4000,190,3920,190,3840,190C3760,190,3680,190,3600,190C3520,190,3440,190,3360,190C3280,190,3200,190,3120,190C3040,190,2960,190,2880,190C2800,190,2720,190,2640,190C2560,190,2480,190,2400,190C2320,190,2240,190,2160,190C2080,190,2000,190,1920,190C1840,190,1760,190,1680,190C1600,190,1520,190,1440,190C1360,190,1280,190,1200,190C1120,190,1040,190,960,190C880,190,800,190,720,190C640,190,560,190,480,190C400,190,320,190,240,190C160,190,80,190,40,190L0,190Z"/></svg>